<?xml version="1.0" encoding="iso-8859-1"?>
<!-- Generator: Adobe Illustrator 19.0.0, SVG Export Plug-In . SVG Version: 6.00 Build 0)  -->
<svg version="1.1" id="Layer_1" xmlns="http://www.w3.org/2000/svg" xmlns:xlink="http://www.w3.org/1999/xlink" x="0px" y="0px"
	 viewBox="0 0 226.1 226.1" style="enable-background:new 0 0 226.1 226.1;" xml:space="preserve">
<g>
	<g>
		<g>
			<path d="M214.177,53.55H11.923C5.349,53.55,0,58.872,0,65.415v95.27c0,6.543,5.349,11.865,11.923,11.865h202.254
				c6.574,0,11.923-5.322,11.923-11.865v-95.27C226.1,58.872,220.751,53.55,214.177,53.55z M218.167,160.685
				c0,2.204-1.751,3.932-3.99,3.932H11.923c-2.2,0-3.99-1.762-3.99-3.932v-95.27c0-2.204,1.751-3.932,3.99-3.932h202.254
				c2.2,0,3.99,1.762,3.99,3.932V160.685z"/>
			<rect x="11.9" y="97.183" width="7.933" height="27.767"/>
			<path d="M202.3,101.15c-6.562,0-11.9,5.338-11.9,11.9s5.338,11.9,11.9,11.9c6.562,0,11.9-5.338,11.9-11.9
				S208.862,101.15,202.3,101.15z M202.3,117.017c-2.189,0-3.967-1.778-3.967-3.967s1.778-3.967,3.967-3.967
				c2.189,0,3.967,1.778,3.967,3.967S204.489,117.017,202.3,117.017z"/>
			<path d="M182.467,65.45h-154.7c-2.192,0-3.967,1.774-3.967,3.967v87.267c0,2.192,1.774,3.967,3.967,3.967h11.9h23.8H83.3h47.6
				h51.567c2.192,0,3.967-1.774,3.967-3.967V69.417C186.433,67.224,184.659,65.45,182.467,65.45z M63.467,152.717H46.74
				l14.743-24.125l14.743,24.125H63.467z M85.526,152.717l-7.53-12.323l19.188-31.601l26.667,43.924H85.526z M178.5,152.717h-45.37
				l-32.557-53.624c-0.717-1.185-2.003-1.91-3.39-1.91c-1.387,0-2.673,0.724-3.39,1.91l-20.452,33.686l-8.473-13.864
				c-1.441-2.355-5.33-2.355-6.771,0L37.44,152.717h-5.708V73.383H178.5V152.717z"/>
			<path d="M146.767,120.983c10.935,0,19.833-8.898,19.833-19.833s-8.898-19.833-19.833-19.833s-19.833,8.898-19.833,19.833
				S135.831,120.983,146.767,120.983z M146.767,89.25c6.562,0,11.9,5.338,11.9,11.9c0,6.562-5.338,11.9-11.9,11.9
				c-6.562,0-11.9-5.338-11.9-11.9C134.867,94.588,140.205,89.25,146.767,89.25z"/>
		</g>
	</g>
</g>
<g>
</g>
<g>
</g>
<g>
</g>
<g>
</g>
<g>
</g>
<g>
</g>
<g>
</g>
<g>
</g>
<g>
</g>
<g>
</g>
<g>
</g>
<g>
</g>
<g>
</g>
<g>
</g>
<g>
</g>
</svg>
